# AST/ASF file generated using VICON BodyLanguage
# -----------------------------------------------
:version 1.10
:name VICON
:units
  mass 1.0
  length 0.45
  angle deg
:documentation
   .ast/.asf automatically generated from VICON data using
   VICON BodyBuilder and BodyLanguage model FoxedUp or BRILLIANT.MOD
:root
   order TX TY TZ RX RY RZ
   axis XYZ
   position 0 0 0  
   orientation 0 0 0 
:bonedata
  begin
     id 1 
     name lhipjoint
     direction 0.577973 -0.728611 0.367523 
     length 2.48544 
     axis 0 0 0  XYZ
  end
  begin
     id 2 
     name lfemur
     direction 0.34202 -0.939693 0  
     length 7.1921  
     axis 0 0 20  XYZ
    dof rx ry rz
    limits (-160.0 20.0)
           (-70.0 70.0)
           (-60.0 70.0)
  end
  begin
     id 3 
     name ltibia
     direction 0.34202 -0.939693 0   
     length 7.71059   
     axis 0 0 20   XYZ
    dof rx
    limits (-10.0 170.0)
  end
  begin
     id 4 
     name lfoot
     direction 0.089538 -0.246004 0.965124   
     length 2.19909   
     axis -90 7.62852e-016 20   XYZ
    dof rx rz
    limits (-45.0 90.0)
           (-70.0 20.0)
  end
  begin
     id 5 
     name ltoes
     direction 1.53544e-011 -4.21829e-011 1   
     length 1.10116   
     axis -90 7.62852e-016 20   XYZ
    dof rx
    limits (-90.0 20.0)
  end
  begin
     id 6 
     name rhipjoint
     direction -0.554414 -0.743062 0.374812   
     length 2.4371  
     axis 0 0 0  XYZ 
  end
  begin
     id 7 
     name rfemur
     direction -0.34202 -0.939693 0   
     length 7.47254   
     axis 0 0 -20   XYZ
    dof rx ry rz
    limits (-160.0 20.0)
           (-70.0 70.0)
           (-70.0 60.0)
  end
  begin
     id 8 
     name rtibia
     direction -0.34202 -0.939693 0   
     length 7.65855   
     axis 0 0 -20   XYZ
    dof rx
    limits (-10.0 170.0)
 end
 begin
     id 9 
     name rfoot
     direction -0.133779 -0.367555 0.92033   
     length 2.43006  
     axis -90 -7.62852e-016 -20   XYZ
    dof rx rz
    limits (-45.0 90.0)
           (-20.0 70.0)
  end
  begin
     id 10 
     name rtoes
     direction -1.53563e-011 -4.21889e-011 1   
     length 1.19625   
     axis -90 -7.62852e-016 -20   XYZ
    dof rx
    limits (-90.0 20.0)
  end
  begin
     id 11 
     name lowerback
     direction 0.0249066 0.998043 -0.0573585   
     length 2.08485   
     axis 0 0 0   XYZ
    dof rx ry rz
    limits (-20.0 45.0)
           (-30.0 30.0)
           (-30.0 30.0)
  end
  begin
     id 12 
     name upperback
     direction 0.0237884 0.999673 0.00943178   
     length 2.08515   
     axis 0 0 0   XYZ
    dof rx ry rz
    limits (-20.0 45.0)
           (-30.0 30.0)
           (-30.0 30.0)
  end
  begin
     id 13 
     name thorax
     direction 0.0106671 0.999301 0.0358174   
     length 2.09037   
     axis 0 0 0   XYZ
    dof rx ry rz
    limits (-20.0 45.0)
           (-30.0 30.0)
           (-30.0 30.0)
  end
  begin
     id 14 
     name lowerneck
     direction -0.0580016 0.987052 0.149546   
     length 1.84454   
     axis 0 0 0   XYZ
    dof rx ry rz
    limits (-20.0 45.0)
           (-30.0 30.0)
           (-30.0 30.0)
  end
  begin
     id 15 
     name upperneck
     direction 0.079456 0.981963 -0.171567   
     length 1.88141   
     axis 0 0 0   XYZ
    dof rx ry rz
    limits (-20.0 45.0)
           (-30.0 30.0)
           (-30.0 30.0)
  end
  begin
     id 16
     name head
     direction 0.0262167 0.9967 -0.0768276  
     length 1.89541  
     axis 0 0 0   XYZ
    dof rx ry rz
    limits (-20.0 45.0)
           (-30.0 30.0)
           (-30.0 30.0)
  end
  begin
     id 17 
     name lclavicle
     direction 0.946135 0.322134 -0.0325326  
     length 3.949  
     axis 0 0 0   XYZ
    dof ry rz
    limits (-20.0 10.0)
           (0.0 20.0)
  end
  begin
     id 18 
     name lhumerus
     direction 1 -4.48964e-011 1.94005e-028   
     length 5.10995   
     axis 180 -30 -90   XYZ
    dof rx ry rz
    limits (-60.0 90.0)
           (-90.0 90.0)
           (-90.0 90.0)
  end
  begin
     id 19
     name lradius
     direction 1 -4.48976e-011 2.87852e-027   
     length 3.21207   
     axis 180 -30 -90   XYZ
    dof rx
    limits (-10.0 170.0)
  end
  begin
     id 20
     name lwrist
     direction 1 -4.48963e-011 1.9975e-027   
     length 1.60604   
     axis 2.96054e-016 90 90   XYZ
    dof ry
    limits (-180.0 0.0)
 end
  begin
     id 21 
     name lhand
     direction 1 -4.48919e-011 4.00227e-027   
     length 0.63349   
     axis -2.5488e-015 90 90   XYZ
    dof rx rz
    limits (-90.0 90.0)
           (-45.0 45.0)
  end
  begin
     id 22 
     name lfingers
     direction 1 -4.49037e-011 7.9652e-027   
     length 0.510736   
     axis -5.0975e-015 90 90   XYZ
    dof rx
    limits (0.0 90.0)
  end
  begin
     id 23
     name lthumb
     direction 0.707107 -6.34922e-011 0.707107   
     length 0.733318   
     axis -90 45 -4.48553e-014   XYZ
    dof rx rz
    limits (-45.0 45.0)
           (-45.0 45.0)
  end
  begin
     id 24 
     name rclavicle
     direction -0.940085 0.328911 -0.0897654   
     length 3.93848  
     axis 0 0 0   XYZ 
    dof ry rz
    limits (-10.0 20.0)
           (-20.0 0.0)
  end
  begin
     id 25 
     name rhumerus
     direction -1 -4.48958e-011 3.02044e-027  
     length 5.25109   
     axis 180 30 90   XYZ
    dof rx ry rz
    limits (-90.0 60.0)
           (-90.0 90.0)
           (-90.0 90.0)
  end
  begin
     id 26 
     name rradius
     direction -1 -4.4897e-011 9.78352e-028   
     length 3.28364   
     axis 180 30 90   XYZ
    dof rx
    limits (-10.0 170.0)
  end
  begin
     id 27 
     name rwrist
     direction -1 -4.48943e-011 1.99918e-027   
     length 1.64182   
     axis 2.96054e-016 -90 -90   XYZ
    dof ry
    limits (-180.0 0.0)
  end
  begin
     id 28
     name rhand
     direction -1 -4.49024e-011 3.98478e-027   
     length 0.599745   
     axis -2.5488e-015 -90 -90   XYZ
    dof rx rz
    limits (-90.0 90.0)
           (-45.0 45.0)
  end
  begin
     id 29
     name rfingers
     direction -1 -4.48914e-011 8.00621e-027   
     length 0.48353   
     axis -5.0975e-015 -90 -90   XYZ
    dof rx
    limits (0.0 90.0)
  end
  begin
     id 30
     name rthumb
     direction -0.707107 -6.34992e-011 0.707107   
     length 0.694255   
     axis -90 -45 4.48553e-014   XYZ
    dof rx rz
    limits (-45.0 45.0)
           (-45.0 45.0)
  end
:hierarchy
  begin
    root lhipjoint rhipjoint lowerback
    lhipjoint lfemur
    lfemur ltibia
    ltibia lfoot
    lfoot ltoes
    rhipjoint rfemur
    rfemur rtibia
    rtibia rfoot
    rfoot rtoes
    lowerback upperback
    upperback thorax
    thorax lowerneck lclavicle rclavicle
    lowerneck upperneck
    upperneck head
    lclavicle lhumerus
    lhumerus lradius
    lradius lwrist
    lwrist lhand lthumb
    lhand lfingers
    rclavicle rhumerus
    rhumerus rradius
    rradius rwrist
    rwrist rhand rthumb
    rhand rfingers
  end

#!OML:ASF E:\CV Data\Top Level 1\Subject 1\Session 1\player.ASF
:FULLY-SPECIFIED
:DEGREES
250
root 5.51374 16.9289 -22.6275 28.3544 6.59727 0.0753048
lowerback 42.5981 -1.15998 6.81943
upperback 10.0864 2.04503 4.54789
thorax -8.78597 0.818911 0.52986
lowerneck -18.4651 -10.2282 -13.0385
upperneck 10.9814 -12.4015 11.6643
head 7.97068 -5.51328 4.32379
rclavicle -7.95139e-015 1.94809e-014
rhumerus 18.3968 15.8848 -70.6718
rradius 74.5195
rwrist 14.5086
rhand -42.7549 26.4237
rfingers 7.12502
rthumb -15.6224 -2.96551
lclavicle -7.95139e-015 1.94809e-014
lhumerus 25.6273 -28.3588 92.3309
lradius 60.9315
lwrist 10.9709
lhand -36.5831 19.5663
lfingers 7.12502
lthumb -9.67238 49.3242
rfemur -60.5736 -6.6096 19.6554
rtibia 51.547
rfoot -15.3295 -13.5505
rtoes -0.791026
lfemur -59.7378 5.58594 -18.5011
ltibia 42.3897
lfoot -8.13844 -8.30274
ltoes -3.73449
251
root 5.52315 16.9339 -22.618 28.3126 6.70831 0.0280035
lowerback 42.5712 -1.27048 6.82841
upperback 10.0441 1.90607 4.43974
thorax -8.8229 0.758127 0.46684
lowerneck -18.3742 -10.149 -12.8832
upperneck 11.0012 -12.3665 11.7822
head 7.95735 -5.48263 4.34834
rclavicle -3.18055e-015 -2.10712e-014
rhumerus 16.4753 16.5744 -70.829
rradius 77.6059
rwrist 14.7129
rhand -43.0966 27.2111
rfingers 7.12502
rthumb -15.9514 -2.15203
lclavicle -3.18055e-015 -2.10712e-014
lhumerus 25.5738 -28.6109 91.8436
lradius 61.7482
lwrist 11.0281
lhand -36.061 19.3852
lfingers 7.12502
lthumb -9.16868 49.1658
rfemur -60.4244 -6.63604 19.6796
rtibia 51.4868
rfoot -15.3799 -13.6274
rtoes -0.74056
lfemur -59.6249 5.37149 -18.3289
ltibia 42.3356
lfoot -8.14596 -8.17429
ltoes -3.81711
252
root 5.53306 16.9381 -22.6085 28.2784 6.79674 -0.00822388
lowerback 42.5344 -1.35157 6.80929
upperback 10.0054 1.79158 4.3515
thorax -8.85533 0.708122 0.429064
lowerneck -18.2963 -10.0828 -12.7611
upperneck 11.0275 -12.3379 11.8916
head 7.95053 -5.45666 4.37351
rclavicle 9.54166e-015 -1.98785e-015
rhumerus 14.5764 17.2431 -70.9779
rradius 80.5488
rwrist 15.3912
rhand -43.647 27.9498
rfingers 7.12502
rthumb -16.4814 -1.37016
lclavicle 9.54166e-015 -1.98785e-015
lhumerus 25.4548 -28.8861 91.4314
lradius 62.619
lwrist 11.1166
lhand -35.4827 19.2598
lfingers 7.12502
lthumb -8.61059 49.0642
rfemur -60.2942 -6.66513 19.6905
rtibia 51.4402
rfoot -15.435 -13.6868
rtoes -0.690454
lfemur -59.5175 5.16354 -18.1755
ltibia 42.2864
lfoot -8.1685 -8.04046
ltoes -3.88718
253
root 5.54317 16.9417 -22.599 28.2407 6.85965 -0.0311641
lowerback 42.4967 -1.40525 6.75981
upperback 9.97452 1.69844 4.27958
thorax -8.88095 0.667682 0.415226
lowerneck -18.2162 -10.0276 -12.6751
upperneck 11.0445 -12.3143 12.0002
head 7.94306 -5.43486 4.40326
rclavicle -1.90833e-014 -2.34566e-014
rhumerus 12.7119 17.889 -71.1341
rradius 83.3863
rwrist 16.3855
rhand -44.3353 28.618
rfingers 7.12502
rthumb -17.1439 -0.64564
lclavicle -1.90833e-014 -2.34566e-014
lhumerus 25.2946 -29.1725 91.088
lradius 63.5177
lwrist 11.2616
lhand -34.8554 19.0726
lfingers 7.12502
lthumb -8.00518 48.901
rfemur -60.1716 -6.69182 19.6825
rtibia 51.4125
rfoot -15.4954 -13.7311
rtoes -0.64734
lfemur -59.4014 4.96926 -18.0449
ltibia 42.2417
lfoot -8.20668 -7.90907
ltoes -3.92918
254
root 5.55332 16.9443 -22.5896 28.2115 6.90244 -0.0400173
lowerback 42.4501 -1.43783 6.6884
upperback 9.94522 1.62191 4.2202
thorax -8.90355 0.634612 0.418916
lowerneck -18.1182 -9.98314 -12.6318
upperneck 11.038 -12.2964 12.1208
head 7.92905 -5.41774 4.44323
rclavicle 3.02153e-014 2.34566e-014
rhumerus 10.8912 18.5226 -71.3093
rradius 86.1313
rwrist 17.514
rhand -45.0963 29.114
rfingers 7.12502
rthumb -17.8763 -0.0843757
lclavicle 3.02153e-014 2.34566e-014
lhumerus 25.0958 -29.4594 90.815
lradius 64.4327
lwrist 11.4974
lhand -34.1788 18.826
lfingers 7.12502
lthumb -7.3522 48.6782
rfemur -60.0747 -6.71727 19.6563
rtibia 51.4075
rfoot -15.5545 -13.7617
rtoes -0.612035
lfemur -59.2963 4.79158 -17.9423
ltibia 42.2009
lfoot -8.25749 -7.78851
ltoes -3.99391
255
root 5.56357 16.9452 -22.5808 28.1986 6.93134 -0.0287512
lowerback 42.3825 -1.45592 6.60347
upperback 9.91855 1.55576 4.16723
thorax -8.91775 0.606486 0.431804
lowerneck -18.006 -9.94765 -12.6183
upperneck 11.0126 -12.2841 12.2477
head 7.90942 -5.40498 4.48943
rclavicle 2.70347e-014 2.70347e-014
rhumerus 9.11743 19.1521 -71.5136
rradius 88.8063
rwrist 18.5717
rhand -45.8469 29.4151
rfingers 7.12502
rthumb -18.5985 0.284147
lclavicle 2.70347e-014 2.70347e-014
lhumerus 24.86 -29.7474 90.6068
lradius 65.362
lwrist 11.8396
lhand -33.4749 18.558
lfingers 7.12502
lthumb -6.67267 48.4329
rfemur -60.0156 -6.74726 19.6076
rtibia 51.4289
rfoot -15.6096 -13.7807
rtoes -0.58373
lfemur -59.2152 4.62552 -17.8737
ltibia 42.1656
lfoot -8.31168 -7.6856
ltoes -4.07295
256
root 5.57373 16.9452 -22.5725 28.1962 6.949 0.000385766
lowerback 42.3052 -1.46608 6.517
upperback 9.89364 1.49714 4.11223
thorax -8.92685 0.582006 0.440073
lowerneck -17.8752 -9.9203 -12.6202
upperneck 10.9587 -12.2797 12.3809
head 7.87971 -5.39738 4.53948
rclavicle -1.74931e-014 -5.68524e-014
rhumerus 7.39569 19.7837 -71.7604
rradius 91.4138
rwrist 19.4244
rhand -46.5183 29.5526
rfingers 7.12502
rthumb -19.2442 0.484767
lclavicle -1.74931e-014 -5.68524e-014
lhumerus 24.6137 -30.0372 90.4394
lradius 66.2886
lwrist 12.3147
lhand -32.7963 18.2757
lfingers 7.12502
lthumb -6.01758 48.1703
rfemur -59.9877 -6.77709 19.5365
rtibia 51.4763
rfoot -15.657 -13.7961
rtoes -0.579749
lfemur -59.154 4.47603 -17.8395
ltibia 42.1393
lfoot -8.36661 -7.60529
ltoes -4.1586
257
root 5.58384 16.9442 -22.565 28.2112 6.96146 0.0486492
lowerback 42.2095 -1.46987 6.43453
upperback 9.87258 1.44578 4.05638
thorax -8.92563 0.561202 0.44223
lowerneck -17.7503 -9.89952 -12.6247
upperneck 10.8954 -12.2795 12.5007
head 7.84754 -5.39318 4.58448
rclavicle -1.59028e-015 3.29983e-014
rhumerus 5.73149 20.4227 -72.0441
rradius 93.9504
rwrist 20.0198
rhand -47.0352 29.5749
rfingers 7.12502
rthumb -19.7411 0.557319
lclavicle -1.59028e-015 3.29983e-014
lhumerus 24.3515 -30.3341 90.3251
lradius 67.2191
lwrist 12.9314
lhand -32.206 18.0037
lfingers 7.12502
lthumb -5.44763 47.9137
rfemur -59.9975 -6.81157 19.4437
rtibia 51.5477
rfoot -15.6979 -13.8089
rtoes -0.592095
lfemur -59.1242 4.34245 -17.8442
ltibia 42.1255
lfoot -8.41783 -7.55123
ltoes -4.2558
258
root 5.59374 16.9423 -22.5584 28.2375 6.97368 0.113042
lowerback 42.1046 -1.4711 6.36288
upperback 9.85591 1.40075 3.99916
thorax -8.9159 0.543552 0.434733
lowerneck -17.6415 -9.88678 -12.6287
upperneck 10.8333 -12.2859 12.6048
head 7.81804 -5.39288 4.62254
rclavicle -6.36111e-015 -2.62396e-014
rhumerus 4.13937 21.0735 -72.3585
rradius 96.3979
rwrist 20.3838
rhand -47.3843 29.49
rfingers 7.12502
rthumb -20.0767 0.507257
lclavicle -6.36111e-015 -2.62396e-014
lhumerus 24.0597 -30.6333 90.2687
lradius 68.1677
lwrist 13.6837
lhand -31.7675 17.7517
lfingers 7.12502
lthumb -5.02422 47.6721
rfemur -60.0348 -6.85279 19.3348
rtibia 51.6382
rfoot -15.7332 -13.8227
rtoes -0.628547
lfemur -59.1201 4.22703 -17.8849
ltibia 42.1265
lfoot -8.46588 -7.52834
ltoes -4.33984
259
root 5.60345 16.9402 -22.5526 28.2682 6.98982 0.189733
lowerback 42.0016 -1.47214 6.30811
upperback 9.84367 1.36294 3.94262
thorax -8.90067 0.529261 0.416456
lowerneck -17.5389 -9.88148 -12.6315
upperneck 10.7599 -12.298 12.692
head 7.78528 -5.39672 4.65359
rclavicle -3.18055e-015 -1.11319e-014
rhumerus 2.63678 21.7336 -72.6913
rradius 98.7249
rwrist 20.5867
rhand -47.5726 29.2828
rfingers 7.12502
rthumb -20.2576 0.31921
lclavicle -3.18055e-015 -1.11319e-014
lhumerus 23.757 -30.9306 90.2691
lradius 69.125
lwrist 14.5712
lhand -31.544 17.4416
lfingers 7.12502
lthumb -4.80841 47.3671
rfemur -60.0856 -6.90257 19.2152
rtibia 51.7406
rfoot -15.7676 -13.8385
rtoes -0.673405
lfemur -59.1316 4.13126 -17.9588
ltibia 42.1397
lfoot -8.51052 -7.53332
ltoes -4.40229
